<svg
                style="width: 100%; height: 100%"
                xmlns="http://www.w3.org/2000/svg"
                xmlns:xlink="http://www.w3.org/1999/xlink"
                viewBox="110 110 450 400"
              >
                <defs>
                  <linearGradient
                    id="linear-gradient"
                    x1="1.13"
                    y1="1.295"
                    x2="0.236"
                    y2="0.19"
                    gradientUnits="objectBoundingBox"
                  >
                    <stop offset="0" stop-color="#dae3fe" />
                    <stop offset="1" stop-color="#e9effd" />
                  </linearGradient>
                  <linearGradient
                    id="linear-gradient-2"
                    x1="1.589"
                    y1="0.587"
                    x2="-0.806"
                    y2="0.395"
                    gradientUnits="objectBoundingBox"
                  >
                    <stop offset="0" stop-color="#4f52ff" />
                    <stop offset="1" stop-color="#4042e2" />
                  </linearGradient>
                  <linearGradient
                    id="linear-gradient-3"
                    x1="1.671"
                    y1="-0.084"
                    x2="-2.854"
                    y2="2.172"
                    xlink:href="#linear-gradient-2"
                  />
                  <linearGradient
                    id="linear-gradient-4"
                    x1="3.187"
                    y1="-1.358"
                    x2="-3.193"
                    y2="3.054"
                    xlink:href="#linear-gradient-2"
                  />
                  <linearGradient
                    id="linear-gradient-5"
                    x1="3.93"
                    y1="-6.82"
                    x2="-0.569"
                    y2="2.781"
                    gradientUnits="objectBoundingBox"
                  >
                    <stop offset="0" stop-color="#ff928e" />
                    <stop offset="1" stop-color="#fe7062" />
                  </linearGradient>
                  <linearGradient
                    id="linear-gradient-6"
                    x1="-6.96"
                    y1="42.442"
                    x2="-7.239"
                    y2="48.799"
                    xlink:href="#linear-gradient-2"
                  />
                  <linearGradient
                    id="linear-gradient-7"
                    x1="-6.964"
                    y1="60.658"
                    x2="-7.217"
                    y2="69.645"
                    xlink:href="#linear-gradient-2"
                  />
                  <linearGradient
                    id="linear-gradient-8"
                    x1="-50.545"
                    y1="4.676"
                    x2="-58.545"
                    y2="5.534"
                    gradientUnits="objectBoundingBox"
                  >
                    <stop offset="0" stop-color="#09005d" />
                    <stop offset="1" stop-color="#1a0f91" />
                  </linearGradient>
                  <linearGradient
                    id="linear-gradient-9"
                    x1="-3.362"
                    y1="47.443"
                    x2="-3.619"
                    y2="54.713"
                    xlink:href="#linear-gradient-8"
                  />
                  <linearGradient
                    id="linear-gradient-10"
                    x1="-0.074"
                    y1="-10.391"
                    x2="0.929"
                    y2="-10.391"
                    xlink:href="#linear-gradient-8"
                  />
                  <linearGradient
                    id="linear-gradient-11"
                    x1="-3.932"
                    y1="-18.859"
                    x2="-2.749"
                    y2="-18.859"
                    gradientUnits="objectBoundingBox"
                  >
                    <stop offset="0" stop-color="#febbba" />
                    <stop offset="1" stop-color="#ff928e" />
                  </linearGradient>
                  <linearGradient
                    id="linear-gradient-12"
                    x1="-48.644"
                    y1="-35.229"
                    x2="-46.677"
                    y2="-35.229"
                    xlink:href="#linear-gradient-8"
                  />
                  <linearGradient
                    id="linear-gradient-13"
                    x1="-54.394"
                    y1="-138.4"
                    x2="-53.887"
                    y2="-138.4"
                    xlink:href="#linear-gradient-11"
                  />
                  <linearGradient
                    id="linear-gradient-14"
                    x1="1.022"
                    y1="8.109"
                    x2="2.09"
                    y2="8.306"
                    xlink:href="#linear-gradient-11"
                  />
                  <linearGradient
                    id="linear-gradient-15"
                    x1="0.354"
                    y1="0.405"
                    x2="1.004"
                    y2="1.82"
                    xlink:href="#linear-gradient-8"
                  />
                  <linearGradient
                    id="linear-gradient-16"
                    x1="-0.653"
                    y1="1.623"
                    x2="0.209"
                    y2="0.702"
                    xlink:href="#linear-gradient-5"
                  />
                  <linearGradient
                    id="linear-gradient-17"
                    x1="0.127"
                    y1="0.445"
                    x2="0.86"
                    y2="0.561"
                    xlink:href="#linear-gradient-8"
                  />
                  <linearGradient
                    id="linear-gradient-18"
                    x1="-5.456"
                    y1="0.465"
                    x2="-8.306"
                    y2="4.572"
                    xlink:href="#linear-gradient-11"
                  />
                  <linearGradient
                    id="linear-gradient-19"
                    x1="-13.484"
                    y1="26.389"
                    x2="-14.611"
                    y2="27.672"
                    xlink:href="#linear-gradient-11"
                  />
                  <linearGradient
                    id="linear-gradient-20"
                    x1="-10.126"
                    y1="17.757"
                    x2="-9.168"
                    y2="17.757"
                    xlink:href="#linear-gradient-8"
                  />
                  <linearGradient
                    id="linear-gradient-21"
                    x1="-44.866"
                    y1="87.171"
                    x2="-42.315"
                    y2="84.574"
                    xlink:href="#linear-gradient-11"
                  />
                  <linearGradient
                    id="linear-gradient-22"
                    x1="-0.109"
                    y1="0.439"
                    x2="1.001"
                    y2="0.563"
                    xlink:href="#linear-gradient-11"
                  />
                  <clipPath id="clip-Welcome_Emailer_Illustration">
                    <rect width="627" height="627" />
                  </clipPath>
                </defs>
                <g
                  id="Welcome_Emailer_Illustration"
                  data-name="Welcome Emailer Illustration"
                  clip-path="url(#clip-Welcome_Emailer_Illustration)"
                >
                  <g id="Illustration" transform="translate(92.767 102.288)">
                    <path
                      id="Path_48"
                      data-name="Path 48"
                      d="M751.931,777.357a134.935,134.935,0,0,1-20.651,17.388c-67.366,48.336-147.077,34.246-164.018,30.81-25.017-5.084-73.374-14.908-108.334-56.021-52.893-62.2-44.657-160.2-3.63-224.881,7.5-11.832,47.153-77.506,127.716-88.038,48.76-6.374,105.6,6.481,146.76,40.967C816.176,569.963,810.026,716.2,751.931,777.357Z"
                      transform="translate(-364.362 -428.808)"
                      fill="url(#linear-gradient)"
                    />
                    <path
                      id="Path_49"
                      data-name="Path 49"
                      d="M2608.441,751.29a2.054,2.054,0,0,0-3.962.426c-2.765,20.462-11.693,73.893-32.664,104.523-34.146,49.87-50.928,125.432-19.874,159C2551.941,1015.239,2688.578,969.774,2608.441,751.29Z"
                      transform="translate(-2194.918 -684.205)"
                      fill="#bdd0fb"
                    />
                    <path
                      id="Path_50"
                      data-name="Path 50"
                      d="M2751.422,971.578c.04.651.021,1.191.026,1.772l-.02,1.716-.079,3.425c-.068,2.277-.171,4.564-.268,6.845q-.337,6.842-.825,13.674c-.662,9.109-1.569,18.2-2.613,27.274s-2.316,18.126-3.791,27.142-3.1,18.013-5.013,26.949a439.065,439.065,0,0,1-14.52,52.87c-3.082,8.611-6.394,17.146-10.192,25.471a236.106,236.106,0,0,1-12.86,24.219.36.36,0,0,1-.62-.364h0a265.93,265.93,0,0,0,12.11-24.457c3.642-8.339,6.8-16.878,9.725-25.495s5.5-17.348,7.877-26.132,4.383-17.67,6.343-26.56c3.843-17.8,6.734-35.8,9.127-53.865q1.767-13.551,3.009-27.169.638-6.806,1.133-13.623l.437-6.82.184-3.412.072-1.7c.015-.559.04-1.159.033-1.649V971.6a.356.356,0,1,1,.712-.028Z"
                      transform="translate(-2337.846 -875.852)"
                      fill="#fff"
                      opacity="0.43"
                    />
                    <path
                      id="Path_51"
                      data-name="Path 51"
                      d="M2318.514,470.927A1.966,1.966,0,0,0,2315,472.4c3.048,19.52,9.437,70.954-1.44,104.764-17.708,55.048-12.486,128.922,25.149,151.237C2338.7,728.393,2451.6,649.424,2318.514,470.927Z"
                      transform="translate(-1994.182 -441.877)"
                      fill="#91b3fa"
                    />
                    <path
                      id="Path_52"
                      data-name="Path 52"
                      d="M2467.988,670.486c.216.587.346,1.087.511,1.618l.448,1.578.863,3.163c.561,2.113,1.089,4.233,1.617,6.352q1.559,6.366,2.976,12.765c1.875,8.535,3.53,17.118,5.049,25.72s2.822,17.252,3.929,25.925,2.076,17.365,2.766,26.084a420.284,420.284,0,0,1,1.106,52.447c-.481,8.738-1.188,17.468-2.4,26.139a227.368,227.368,0,0,1-5.187,25.72.351.351,0,0,1-.682-.167h0a253.873,253.873,0,0,0,4.428-25.733c1.063-8.64,1.625-17.335,1.959-26.031s.309-17.414.092-26.114-.8-17.4-1.429-26.085c-1.332-17.374-3.591-34.669-6.322-51.885q-2.073-12.911-4.648-25.737-1.271-6.414-2.679-12.8l-1.459-6.374-.762-3.179-.4-1.583c-.135-.516-.279-1.072-.42-1.519l-.022-.075a.347.347,0,1,1,.657-.224Z"
                      transform="translate(-2135.792 -615.189)"
                      fill="#fff"
                      opacity="0.43"
                    />
                    <circle
                      id="Ellipse_5"
                      data-name="Ellipse 5"
                      cx="149.349"
                      cy="149.349"
                      r="149.349"
                      transform="translate(0 211.212) rotate(-45)"
                      fill="url(#linear-gradient-2)"
                    />
                    <circle
                      id="Ellipse_6"
                      data-name="Ellipse 6"
                      cx="149.349"
                      cy="149.349"
                      r="149.349"
                      transform="translate(10.005 211.212) rotate(-45)"
                      fill="#fff"
                    />
                    <circle
                      id="Ellipse_7"
                      data-name="Ellipse 7"
                      cx="127.463"
                      cy="127.463"
                      r="127.463"
                      transform="translate(93.752 83.749)"
                      fill="url(#linear-gradient-3)"
                    />
                    <path
                      id="Path_53"
                      data-name="Path 53"
                      d="M778.607,1104.426c-73.8,0-133.847-60.043-133.847-133.847S704.8,836.73,778.607,836.73s133.847,60.044,133.847,133.849S852.411,1104.426,778.607,1104.426Zm0-261.311A127.463,127.463,0,1,0,906.07,970.579,127.607,127.607,0,0,0,778.607,843.115Z"
                      transform="translate(-557.392 -759.366)"
                      fill="#fff"
                    />
                    <circle
                      id="Ellipse_8"
                      data-name="Ellipse 8"
                      cx="77.707"
                      cy="77.707"
                      r="77.707"
                      transform="translate(111.322 211.212) rotate(-45)"
                      fill="url(#linear-gradient-4)"
                    />
                    <path
                      id="Path_54"
                      data-name="Path 54"
                      d="M1100.281,1376.353a84.092,84.092,0,1,1,84.092-84.091A84.187,84.187,0,0,1,1100.281,1376.353Zm0-155.415a71.324,71.324,0,1,0,71.324,71.324A71.4,71.4,0,0,0,1100.281,1220.938Z"
                      transform="translate(-879.066 -1081.049)"
                      fill="#fff"
                    />
                    <circle
                      id="Ellipse_9"
                      data-name="Ellipse 9"
                      cx="30.107"
                      cy="30.107"
                      r="30.107"
                      transform="translate(178.639 211.212) rotate(-45)"
                      fill="url(#linear-gradient-5)"
                    />
                    <path
                      id="Path_55"
                      data-name="Path 55"
                      d="M1408.03,1636.491a36.491,36.491,0,1,1,36.49-36.49A36.531,36.531,0,0,1,1408.03,1636.491Zm0-60.212A23.722,23.722,0,1,0,1431.748,1600a23.749,23.749,0,0,0-23.718-23.722Z"
                      transform="translate(-1186.815 -1388.789)"
                      fill="#fff"
                    />
                    <path
                      id="Path_56"
                      data-name="Path 56"
                      d="M2931.311,2109.909l6.378,12.871-27.043-6.226a30.333,30.333,0,0,1-20.376-16.094h0Z"
                      transform="translate(-2502.1 -1853.811)"
                      fill="url(#linear-gradient-6)"
                    />
                    <path
                      id="Path_57"
                      data-name="Path 57"
                      d="M2937.962,2040.1l11.364-8.786-27.043-6.226a30.333,30.333,0,0,0-25.362,5.563h0Z"
                      transform="translate(-2507.86 -1787.864)"
                      fill="url(#linear-gradient-7)"
                    />
                    <rect
                      id="Rectangle_5"
                      data-name="Rectangle 5"
                      width="4.757"
                      height="180.119"
                      transform="translate(254.095 215.906) rotate(-77.04)"
                      fill="url(#linear-gradient-8)"
                    />
                    <path
                      id="Path_58"
                      data-name="Path 58"
                      d="M1672.85,1789.71c2.659.612-.227,13.149-2.887,12.537l-40.382-14.533a1.34,1.34,0,0,1,.6-2.594Z"
                      transform="translate(-1409.52 -1580.706)"
                      fill="url(#linear-gradient-9)"
                    />
                    <path
                      id="Path_59"
                      data-name="Path 59"
                      d="M2168.345,3169.51a14.927,14.927,0,0,1,2.264,7.471,1.888,1.888,0,0,1-1.834,1.913l-16.594.579a.794.794,0,0,1-.506-1.43c3.063-2.314,9.091-6.647,13.5-8.423Z"
                      transform="translate(-1862.171 -2779.654)"
                      fill="url(#linear-gradient-10)"
                    />
                    <path
                      id="Path_60"
                      data-name="Path 60"
                      d="M2254.152,3117.625l-.425,6.379a1.29,1.29,0,0,1-1.375,1.214,4.687,4.687,0,0,1-1.53-.4,1.48,1.48,0,0,1-.861-1.408l.288-7.7Z"
                      transform="translate(-1947.565 -2733.062)"
                      fill="url(#linear-gradient-11)"
                    />
                    <path
                      id="Path_61"
                      data-name="Path 61"
                      d="M2965.068,2955.306a14.933,14.933,0,0,1,7.77-.8,1.889,1.889,0,0,1,1.53,2.164l-2.58,16.4a.794.794,0,0,1-1.5.226c-1.692-3.447-4.8-10.187-5.708-14.851Z"
                      transform="translate(-2566.456 -2593.28)"
                      fill="url(#linear-gradient-12)"
                    />
                    <path
                      id="Path_62"
                      data-name="Path 62"
                      d="M2913.078,2951.23l6.182,1.628a1.292,1.292,0,0,1,.938,1.581,4.705,4.705,0,0,1-.689,1.423,1.483,1.483,0,0,1-1.547.579l-7.5-1.741Z"
                      transform="translate(-2519.586 -2590.614)"
                      fill="url(#linear-gradient-13)"
                    />
                    <path
                      id="Path_63"
                      data-name="Path 63"
                      d="M2248.594,1944.606a5.385,5.385,0,0,1-.466-2.044c.089-.759.111-3.133-1.313-4.135a.851.851,0,0,0-.786.9c-.907-.974-.952-1.814-1.89-1.218s-4.462,2.735-2.7,4.146,4.528,4.095,4.528,4.095Z"
                      transform="translate(-1939.764 -1713.038)"
                      fill="url(#linear-gradient-14)"
                    />
                    <path
                      id="Path_64"
                      data-name="Path 64"
                      d="M2526,2636.285s3.142,25.062,12.132,26.019,43.429,5.93,43.429,5.93l.957-5.165s-19.9-12.056-31.759-11.861c-5.93-8.8-4.483-33.118-4.483-33.118Z"
                      transform="translate(-2186.627 -2302.1)"
                      fill="url(#linear-gradient-15)"
                    />
                    <path
                      id="Path_65"
                      data-name="Path 65"
                      d="M2348.519,2003.023c-1.058,27.941-15.716,30.408-15.716,30.408v35.739h-20.667s-10.021-24.4-9.762-32.562c-14.906-6.3-22.45-42.341-24.025-46.956a26.942,26.942,0,0,0,2.628-1.741c20.316,32.334,25.274,37.3,25.274,37.3h11.479c22.057-1.981,27.483-22.948,27.483-22.948Z"
                      transform="translate(-1972.151 -1756.338)"
                      fill="url(#linear-gradient-16)"
                    />
                    <path
                      id="Path_66"
                      data-name="Path 66"
                      d="M2294.854,2589.24s1.642,17.511-32.851,31.159c-8.408,15.683-19.453,44.929-19.453,44.929h-7.27s4.974-44.167,13.773-52.968,18.4-18.7,25.781-23.041C2291.906,2587.532,2294.854,2589.24,2294.854,2589.24Z"
                      transform="translate(-1934.851 -2276.478)"
                      fill="url(#linear-gradient-17)"
                    />
                    <path
                      id="Path_67"
                      data-name="Path 67"
                      d="M2513.2,2169.12l3.8,13.4s-6.5,3.5-11.307,2.545l-1.321-11.811Z"
                      transform="translate(-2167.903 -1913.273)"
                      fill="url(#linear-gradient-18)"
                    />
                    <path
                      id="Path_68"
                      data-name="Path 68"
                      d="M2477.064,2092.675c-.134.157-5.314,13.023-5.314,13.023l7.41,2.8,6.715-11.466S2479.4,2090.051,2477.064,2092.675Z"
                      transform="translate(-2139.644 -1846.558)"
                      fill="url(#linear-gradient-19)"
                    />
                    <path
                      id="Path_69"
                      data-name="Path 69"
                      d="M2471.9,2065.133l-3.062,6.313a.983.983,0,0,1-.147.223c-.366.411-1.727,1.741-3,.268-1.153-1.339-2.227-2.545-3.306-2.861a.979.979,0,0,0-1.187.573,43.427,43.427,0,0,0-2.009,6.264.977.977,0,0,0,.67,1.136,31.482,31.482,0,0,0,7.219,1.428.983.983,0,0,0,.884-.473c.906-1.507,3.676-6.074,4.645-7.234.909-1.083,2.813-.835,3.6-.669a.962.962,0,0,0,.744-.154,2.54,2.54,0,0,0,.615-4.033.982.982,0,0,1,.181-1.4,2.547,2.547,0,0,0,.748-3.723,3.59,3.59,0,0,0-4.144-1.5.98.98,0,0,1-1.124-.565.775.775,0,0,0-.753-.46.966.966,0,0,1-.913-1.1,2.928,2.928,0,0,0-1.9-3.288c-3.215-1.412-5.657,1.573-6.133,3.952s3.1,3.713,5.277,3.8c1.657.062,2.694,1.828,3.1,2.672A.968.968,0,0,1,2471.9,2065.133Z"
                      transform="translate(-2128.75 -1813.15)"
                      fill="url(#linear-gradient-20)"
                    />
                    <path
                      id="Path_70"
                      data-name="Path 70"
                      d="M2551,2172.8s1.009-4.11,2.766-4.118,3.286,1.608,1.3,3.751C2552.6,2175.1,2551,2172.8,2551,2172.8Z"
                      transform="translate(-2208.278 -1912.892)"
                      fill="url(#linear-gradient-21)"
                    />
                    <path
                      id="Path_71"
                      data-name="Path 71"
                      d="M2781.889,2041.919s-4.465-1.977-3.885,1.339-.625,5.739,1.919,5.995S2782.753,2044.211,2781.889,2041.919Z"
                      transform="translate(-2404.828 -1802.605)"
                      fill="url(#linear-gradient-22)"
                    />
                    <g
                      id="Group_5"
                      data-name="Group 5"
                      transform="translate(110.736 26.249)"
                      opacity="0.3"
                    >
                      <path
                        id="Path_72"
                        data-name="Path 72"
                        d="M821.241,521.944a1.424,1.424,0,0,1-1.474-1.206c-.249-1.587-.431-3.215-.545-4.822a1.424,1.424,0,0,1,1.321-1.52h.027a1.424,1.424,0,0,1,1.492,1.322c.107,1.531.281,3.073.517,4.581a1.422,1.422,0,0,1-1.186,1.626A1.406,1.406,0,0,1,821.241,521.944Zm-.536-12.387a1.425,1.425,0,0,1-1.495-1.516c.108-1.607.286-3.234.529-4.823a1.424,1.424,0,0,1,2.813.43c-.232,1.51-.4,3.052-.5,4.583a1.424,1.424,0,0,1-1.349,1.326Zm2.2-12.2a1.425,1.425,0,0,1-1.435-1.831c.462-1.543,1-3.081,1.591-4.584a1.424,1.424,0,0,1,2.647,1.049c-.564,1.423-1.072,2.887-1.512,4.354a1.424,1.424,0,0,1-1.3,1.013Zm4.876-11.4a1.408,1.408,0,0,1-.774-.183,1.422,1.422,0,0,1-.536-1.941c.8-1.4,1.664-2.785,2.576-4.114a1.423,1.423,0,0,1,2.346,1.607c-.867,1.262-1.69,2.576-2.447,3.908a1.417,1.417,0,0,1-1.168.723Zm7.294-10.028a1.423,1.423,0,0,1-1.122-2.382c1.085-1.187,2.237-2.344,3.423-3.439a1.423,1.423,0,0,1,1.93,2.091c-1.126,1.041-2.221,2.143-3.252,3.269a1.411,1.411,0,0,1-.982.461Zm9.332-8.163a1.424,1.424,0,0,1-.887-2.591c1.323-.919,2.7-1.792,4.1-2.6a1.423,1.423,0,1,1,1.42,2.466c-1.327.765-2.637,1.594-3.894,2.467a1.413,1.413,0,0,1-.742.253Zm51.912-6.039a1.39,1.39,0,0,1-.594-.1c-1.423-.561-2.889-1.072-4.358-1.5a1.423,1.423,0,1,1,.812-2.727c1.547.459,3.092.993,4.589,1.583a1.424,1.424,0,0,1-.45,2.746Zm-41.011.149a1.424,1.424,0,0,1-.605-2.742c1.495-.6,3.034-1.147,4.575-1.618a1.424,1.424,0,1,1,.833,2.722c-1.464.447-2.924.964-4.344,1.536a1.438,1.438,0,0,1-.462.1Zm29.038-3.368a1.38,1.38,0,0,1-.287-.013c-1.512-.228-3.056-.394-4.585-.494a1.423,1.423,0,1,1,.185-2.84c1.608.1,3.234.28,4.823.52a1.423,1.423,0,0,1-.134,2.828Zm-17.1.062a1.424,1.424,0,0,1-.293-2.828c1.59-.252,3.215-.438,4.823-.555h.03a1.424,1.424,0,0,1,.174,2.841c-1.529.11-3.069.287-4.579.526a1.428,1.428,0,0,1-.158.015Z"
                        transform="translate(-819.208 -455.157)"
                        fill="#91b3fa"
                      />
                      <path
                        id="Path_73"
                        data-name="Path 73"
                        d="M1439.168,511.831a1.42,1.42,0,0,1-.822-.213c-.623-.388-1.265-.769-1.906-1.135a1.423,1.423,0,1,1,1.4-2.474c.67.382,1.35.784,2.009,1.191a1.424,1.424,0,0,1-.68,2.631Z"
                        transform="translate(-1353.132 -500.768)"
                        fill="#91b3fa"
                      />
                    </g>
                    <g
                      id="Group_6"
                      data-name="Group 6"
                      transform="translate(134.577 67.743)"
                      opacity="0.3"
                    >
                      <path
                        id="Path_74"
                        data-name="Path 74"
                        d="M1634.778,769.976a1.423,1.423,0,0,1-1.463-1.125c-.153-.718-.323-1.444-.506-2.159a1.423,1.423,0,1,1,2.757-.707c.193.753.372,1.518.536,2.277a1.424,1.424,0,0,1-1.1,1.689A1.441,1.441,0,0,1,1634.778,769.976Z"
                        transform="translate(-1547.623 -764.914)"
                        fill="#91b3fa"
                      />
                      <path
                        id="Path_75"
                        data-name="Path 75"
                        d="M1088.916,899.634q-.981.051-1.97.067a1.424,1.424,0,0,1-.05-2.847c1.523-.027,3.042-.114,4.531-.268a1.423,1.423,0,0,1,.284,2.832C1090.79,899.515,1089.849,899.586,1088.916,899.634Zm-9.475-.317a1.462,1.462,0,0,1-.242-.008c-1.577-.187-3.163-.443-4.715-.762a1.423,1.423,0,0,1,.572-2.788c1.474.3,2.982.545,4.48.723a1.423,1.423,0,0,1-.094,2.835Zm19.653-1.156a1.424,1.424,0,0,1-.4-2.805c1.462-.352,2.928-.773,4.359-1.25a1.424,1.424,0,1,1,.9,2.7c-1.507.5-3.051.938-4.591,1.317A1.381,1.381,0,0,1,1099.094,898.161Zm-31.539-1.608a1.436,1.436,0,0,1-.546-.079c-1.495-.536-2.987-1.129-4.431-1.782a1.423,1.423,0,1,1,1.172-2.593c1.372.62,2.788,1.188,4.208,1.69a1.423,1.423,0,0,1-.4,2.764Zm43-2.545a1.424,1.424,0,0,1-.7-2.7c1.348-.67,2.679-1.4,3.977-2.178a1.424,1.424,0,0,1,1.474,2.437c-1.36.821-2.768,1.593-4.186,2.293a1.426,1.426,0,0,1-.56.141Zm10.273-6.573a1.423,1.423,0,0,1-.967-2.528c1.172-.947,2.319-1.954,3.408-2.994a1.423,1.423,0,0,1,1.967,2.057c-1.147,1.094-2.353,2.154-3.588,3.151a1.418,1.418,0,0,1-.818.308Zm8.594-8.66a1.424,1.424,0,0,1-1.185-2.308c.938-1.18,1.839-2.411,2.679-3.665a1.423,1.423,0,1,1,2.367,1.581c-.879,1.317-1.826,2.615-2.813,3.857A1.424,1.424,0,0,1,1129.423,878.774Zm6.5-10.324a1.424,1.424,0,0,1-1.351-2.043c.657-1.357,1.266-2.757,1.805-4.162a1.423,1.423,0,1,1,2.656,1.022c-.568,1.473-1.205,2.947-1.9,4.382a1.424,1.424,0,0,1-1.207.8Zm4.079-11.5a1.425,1.425,0,0,1-1.458-1.741c.342-1.466.627-2.963.844-4.455a1.424,1.424,0,1,1,2.813.411c-.23,1.571-.536,3.149-.89,4.688A1.427,1.427,0,0,1,1140.005,856.946Zm1.452-12.112h-.088a1.424,1.424,0,0,1-1.409-1.437c.012-1.11-.011-2.233-.067-3.338-.021-.4-.045-.8-.075-1.2a1.423,1.423,0,0,1,1.317-1.523,1.406,1.406,0,0,1,1.522,1.315c.031.419.057.839.079,1.26.059,1.163.083,2.344.071,3.511a1.421,1.421,0,0,1-1.346,1.409Z"
                        transform="translate(-1053.092 -827.631)"
                        fill="#91b3fa"
                      />
                      <path
                        id="Path_76"
                        data-name="Path 76"
                        d="M1000.631,1212.855a1.424,1.424,0,0,1-.829-.216c-.653-.411-1.307-.843-1.949-1.285a1.423,1.423,0,1,1,1.607-2.344c.609.419,1.232.829,1.851,1.219a1.423,1.423,0,0,1-.687,2.626Z"
                        transform="translate(-997.181 -1149.272)"
                        fill="#91b3fa"
                      />
                    </g>
                    <path
                      id="Path_77"
                      data-name="Path 77"
                      d="M937.463,630.71a.67.67,0,0,0,.754.166l7.447-3.177a35.261,35.261,0,0,0,10.323,4.9l2.252,7.77a.67.67,0,0,0,.605.48l9.7.485a.669.669,0,0,0,.651-.415l3.017-7.5a35.263,35.263,0,0,0,10.759-3.842l7.092,3.9a.67.67,0,0,0,.768-.09l7.2-6.514a.67.67,0,0,0,.166-.754l-3.178-7.447a35.28,35.28,0,0,0,4.9-10.323l7.769-2.252a.67.67,0,0,0,.479-.606l.485-9.7a.669.669,0,0,0-.417-.651l-7.5-3.017a35.272,35.272,0,0,0-3.842-10.761l3.9-7.092a.67.67,0,0,0-.089-.766l-6.515-7.2a.669.669,0,0,0-.754-.166l-7.447,3.177a35.264,35.264,0,0,0-10.323-4.9l-2.252-7.769a.67.67,0,0,0-.606-.479l-9.7-.485a.67.67,0,0,0-.651.415l-3.017,7.5a35.28,35.28,0,0,0-10.761,3.842l-7.092-3.905a.67.67,0,0,0-.766.09l-7.2,6.514a.67.67,0,0,0-.166.754l3.177,7.447a35.256,35.256,0,0,0-4.9,10.323l-7.769,2.252a.67.67,0,0,0-.48.606l-.493,9.7a.67.67,0,0,0,.415.651l7.5,3.017a35.26,35.26,0,0,0,3.842,10.759l-3.9,7.092a.67.67,0,0,0,.09.767Z"
                      transform="translate(-798.355 -515.969)"
                      fill="#91b3fa"
                    />
                    <path
                      id="Path_78"
                      data-name="Path 78"
                      d="M1180.094,821.986a9.762,9.762,0,1,1,1.423-.177A9.977,9.977,0,0,1,1180.094,821.986Zm-.853-17.226a7.486,7.486,0,1,0,7.705,6.009A7.486,7.486,0,0,0,1179.241,804.761Z"
                      transform="translate(-1012.136 -729.7)"
                      fill="#bdd0fb"
                    />
                    <path
                      id="Path_79"
                      data-name="Path 79"
                      d="M1089.849,742.974q-1.224.062-2.466,0h0c-.26-.013-.521-.031-.781-.052a24.28,24.28,0,0,1-3.794-.619l-.05-.012-.145-.038-.278-.072a.571.571,0,0,1-.422-.52.63.63,0,0,1,.019-.178.571.571,0,0,1,.7-.4,22.851,22.851,0,1,0-14.235-11.334.55.55,0,0,1,.067.238.569.569,0,0,1-1.072.3,23.94,23.94,0,0,1-2.78-10.047,24.006,24.006,0,0,1,47.946-2.508q.062,1.226,0,2.469a24.009,24.009,0,0,1-22.707,22.773Z"
                      transform="translate(-920.976 -636.617)"
                      fill="#bdd0fb"
                    />
                    <g
                      id="Group_7"
                      data-name="Group 7"
                      transform="translate(63.198 81.887)"
                      opacity="0.3"
                    >
                      <path
                        id="Path_80"
                        data-name="Path 80"
                        d="M476.284,1226.9a.876.876,0,0,1-.873-.588c-.247-.7-.476-1.426-.679-2.143a.879.879,0,1,1,1.691-.481c.194.686.413,1.373.647,2.046a.879.879,0,0,1-.536,1.12A.893.893,0,0,1,476.284,1226.9Z"
                        transform="translate(-473.309 -1175.826)"
                        fill="#91b3fa"
                      />
                      <path
                        id="Path_81"
                        data-name="Path 81"
                        d="M465.668,915.018a.879.879,0,0,1-.912-.745,37.777,37.777,0,0,1-.392-3.847c-.015-.268-.026-.536-.034-.813a.911.911,0,0,1,.852-.906.879.879,0,0,1,.906.852c.008.26.017.52.031.777a36.658,36.658,0,0,0,.375,3.67.879.879,0,0,1-.735,1C465.727,915.013,465.7,915.017,465.668,915.018Zm-.268-9.124a.943.943,0,0,1-.126,0,.879.879,0,0,1-.794-.956,38.037,38.037,0,0,1,.714-4.624.879.879,0,0,1,1.717.375,36.44,36.44,0,0,0-.682,4.41.877.877,0,0,1-.833.8Zm1.949-8.916a.9.9,0,0,1-.338-.05.88.88,0,0,1-.536-1.121A37.953,37.953,0,0,1,468.3,891.5a.879.879,0,0,1,1.573.786,36.065,36.065,0,0,0-1.741,4.109.88.88,0,0,1-.79.585Zm4.082-8.171a.879.879,0,0,1-.78-1.361,38.327,38.327,0,0,1,2.828-3.729.882.882,0,1,1,1.34,1.148,36.175,36.175,0,0,0-2.7,3.555.877.877,0,0,1-.7.394Zm5.952-6.92a.879.879,0,0,1-.639-1.522,38.426,38.426,0,0,1,3.648-2.928.879.879,0,1,1,1.014,1.436,36.694,36.694,0,0,0-3.483,2.794.876.876,0,0,1-.544.227Zm7.451-5.266a.879.879,0,0,1-.461-1.652,37.7,37.7,0,0,1,4.25-1.95.879.879,0,1,1,.632,1.64,36.254,36.254,0,0,0-4.052,1.859.848.848,0,0,1-.374.11Zm8.509-3.282a.88.88,0,0,1-.256-1.725,38.5,38.5,0,0,1,4.6-.848.88.88,0,0,1,.212,1.741,36.06,36.06,0,0,0-4.39.8.935.935,0,0,1-.173.035Zm13.623-.8a.877.877,0,0,1-.154,0,35.979,35.979,0,0,0-3.873-.276h-.583a.88.88,0,0,1,0-1.759c.2,0,.41,0,.616.008a38.171,38.171,0,0,1,4.055.29.879.879,0,0,1-.064,1.75Z"
                        transform="translate(-464.33 -870.5)"
                        fill="#91b3fa"
                      />
                    </g>
                    <g
                      id="Group_8"
                      data-name="Group 8"
                      transform="translate(79.258 133.944)"
                      opacity="0.3"
                    >
                      <path
                        id="Path_82"
                        data-name="Path 82"
                        d="M646.463,1282.9a.88.88,0,0,1-.1-1.757,36.168,36.168,0,0,0,4.355-.543.879.879,0,1,1,.324,1.728,38.293,38.293,0,0,1-4.567.571Zm-4.5.016h-.095a38.552,38.552,0,0,1-4.572-.536.879.879,0,0,1,.308-1.731,36.989,36.989,0,0,0,4.363.509.879.879,0,0,1,0,1.755Zm13.319-1.669a.879.879,0,0,1-.311-1.716,36.4,36.4,0,0,0,4.1-1.582.879.879,0,0,1,.731,1.6,38.32,38.32,0,0,1-4.295,1.657A.874.874,0,0,1,655.285,1281.247Zm-22.159.09a.885.885,0,0,1-.3-.038,37.737,37.737,0,0,1-4.311-1.624.881.881,0,1,1,.719-1.607,36.1,36.1,0,0,0,4.11,1.546.879.879,0,0,1-.214,1.719Zm30.32-3.828a.879.879,0,0,1-.506-1.626,36.165,36.165,0,0,0,3.594-2.52.879.879,0,1,1,1.1,1.375,38.133,38.133,0,0,1-3.77,2.642A.856.856,0,0,1,663.446,1277.509Zm7.026-5.584a.879.879,0,0,1-.67-1.5,36.5,36.5,0,0,0,2.89-3.306.879.879,0,0,1,1.392,1.072,38.35,38.35,0,0,1-3.029,3.468A.872.872,0,0,1,670.472,1271.924Zm5.492-7.108a.859.859,0,0,1-.493-.122.88.88,0,0,1-.307-1.206,36.023,36.023,0,0,0,2.009-3.9.88.88,0,0,1,1.607.709,37.807,37.807,0,0,1-2.11,4.095.879.879,0,0,1-.714.427Z"
                        transform="translate(-622.127 -1259.11)"
                        fill="#91b3fa"
                      />
                      <path
                        id="Path_83"
                        data-name="Path 83"
                        d="M586.986,1378.421a.865.865,0,0,1-.5-.126c-.643-.388-1.278-.8-1.887-1.219a.879.879,0,1,1,1-1.448c.581.4,1.187.792,1.8,1.163a.88.88,0,0,1-.411,1.63Z"
                        transform="translate(-584.218 -1359.885)"
                        fill="#91b3fa"
                      />
                    </g>
                    <path
                      id="Path_84"
                      data-name="Path 84"
                      d="M543.425,987.935a.445.445,0,0,0,.505.111l4.987-2.126a23.638,23.638,0,0,0,6.9,3.282l1.507,5.2a.443.443,0,0,0,.4.32l6.49.326a.446.446,0,0,0,.435-.278l2.019-5.024a23.629,23.629,0,0,0,7.2-2.572l4.746,2.614a.446.446,0,0,0,.513-.06l4.823-4.359a.444.444,0,0,0,.111-.505l-2.126-4.983a23.576,23.576,0,0,0,3.278-6.911l5.2-1.507a.443.443,0,0,0,.32-.4l.326-6.49a.444.444,0,0,0-.279-.435l-5.023-2.019a23.563,23.563,0,0,0-2.572-7.2l2.613-4.746a.443.443,0,0,0-.059-.513l-4.36-4.823a.442.442,0,0,0-.505-.111l-4.982,2.126a23.572,23.572,0,0,0-6.908-3.278l-1.507-5.2a.446.446,0,0,0-.4-.32l-6.49-.326a.447.447,0,0,0-.435.279l-2.019,5.024a23.579,23.579,0,0,0-7.2,2.572l-4.749-2.613a.443.443,0,0,0-.514.06l-4.822,4.359a.447.447,0,0,0-.111.505l2.13,4.989a23.654,23.654,0,0,0-3.278,6.908l-5.2,1.507a.442.442,0,0,0-.32.4l-.326,6.49a.446.446,0,0,0,.279.435l5.025,2.019a23.612,23.612,0,0,0,2.571,7.2L539,982.6a.446.446,0,0,0,.06.513Z"
                      transform="translate(-461.249 -846.833)"
                      fill="#91b3fa"
                    />
                    <path
                      id="Path_85"
                      data-name="Path 85"
                      d="M704.889,1115.145a6.662,6.662,0,1,1,.979-.122A6.663,6.663,0,0,1,704.889,1115.145Zm-.571-11.52a5.031,5.031,0,0,0-.713.088,4.891,4.891,0,0,0,1.918,9.593h0a4.891,4.891,0,0,0-1.206-9.681Z"
                      transform="translate(-603.409 -988.952)"
                      fill="#bdd0fb"
                    />
                    <path
                      id="Path_86"
                      data-name="Path 86"
                      d="M642.2,1060.4a16.724,16.724,0,0,1-5.019-.509l-.146-.039a.876.876,0,0,1-.65-.8.83.83,0,0,1,.03-.268.878.878,0,0,1,1.072-.62,14.893,14.893,0,0,0,3.113.489h.173a14.672,14.672,0,0,0,7.1-1.5,14.886,14.886,0,0,0,3.3-2.228l.024-.021.075-.067a14.715,14.715,0,0,0,4.853-10.237q.038-.761,0-1.523a14.8,14.8,0,0,0-29.564.043,14.359,14.359,0,0,0,0,1.5,14.773,14.773,0,0,0,1.713,6.191.879.879,0,0,1-1.551.828,16.531,16.531,0,0,1-1.918-6.928A16.559,16.559,0,1,1,642.2,1060.4Z"
                      transform="translate(-540.099 -924.41)"
                      fill="#bdd0fb"
                    />
                  </g>
                </g>
              </svg>